<?xml version="1.0" encoding="utf-8"?>
<!-- Generator: Adobe Illustrator 23.1.0, SVG Export Plug-In . SVG Version: 6.00 Build 0)  -->
<svg version="1.1" id="Layer_1" xmlns="http://www.w3.org/2000/svg" xmlns:xlink="http://www.w3.org/1999/xlink" x="0px" y="0px"
	 viewBox="0 0 46 48" style="enable-background:new 0 0 46 48;" xml:space="preserve">
<style type="text/css">
	.st0{fill-rule:evenodd;clip-rule:evenodd;fill:#8FA9BE;}
	.st1{filter:url(#Adobe_OpacityMaskFilter);}
	.st2{fill-rule:evenodd;clip-rule:evenodd;fill:#FFFFFF;}
	.st3{mask:url(#mask-2_1_);}
	.st4{fill-rule:evenodd;clip-rule:evenodd;fill:#278ADA;}
</style>
<title>Icons/PickUp</title>
<desc>Created with Sketch.</desc>
<g id="TapGoods-2.0">
	<g transform="translate(-386.000000, -989.000000)">
		<g transform="translate(386.000000, 989.000000)">
			<g>
				<g id="Mask">
					<path class="st0" d="M32.5,17.3c1.9,0,3.5,1.6,3.5,3.5l0,0v13.6c0,2-1.6,3.5-3.5,3.5c-1.9,0-3.5-1.6-3.5-3.5l0,0V23.6l-6,6.1
						c-0.6,0.6-1.5,0.6-2.1,0c-0.6-0.6-0.6-1.5,0-2.1l0,0l9-9.1C30.5,17.7,31.5,17.3,32.5,17.3z M26.2,17.3c0.5,0,0.9,0.3,1.1,0.8
						l0,0l-7.9,8c-1.4,1.4-1.4,3.6,0,5c1.4,1.4,3.6,1.4,5,0l0,0l3-3v5.7c0,0.6-0.5,1.1-1.1,1.1l0,0H11.1c-0.6,0-1.1-0.5-1.1-1.1l0,0
						V18.4c0-0.6,0.5-1.1,1.1-1.1l0,0H26.2z M32.5,10c1.8,0,3.2,1.4,3.2,3.2c0,1.8-1.4,3.2-3.2,3.2c-1.8,0-3.2-1.4-3.2-3.2
						C29.3,11.4,30.7,10,32.5,10z"/>
				</g>
				<defs>
					<filter id="Adobe_OpacityMaskFilter" filterUnits="userSpaceOnUse" x="10" y="10" width="26" height="28">
						<feColorMatrix  type="matrix" values="1 0 0 0 0  0 1 0 0 0  0 0 1 0 0  0 0 0 1 0"/>
					</filter>
				</defs>
				<mask maskUnits="userSpaceOnUse" x="10" y="10" width="26" height="28" id="mask-2_1_">
					<g class="st1">
						<path id="path-1_1_" class="st2" d="M32.5,17.3c1.9,0,3.5,1.6,3.5,3.5l0,0v13.6c0,2-1.6,3.5-3.5,3.5c-1.9,0-3.5-1.6-3.5-3.5
							l0,0V23.6l-6,6.1c-0.6,0.6-1.5,0.6-2.1,0c-0.6-0.6-0.6-1.5,0-2.1l0,0l9-9.1C30.5,17.7,31.5,17.3,32.5,17.3z M26.2,17.3
							c0.5,0,0.9,0.3,1.1,0.8l0,0l-7.9,8c-1.4,1.4-1.4,3.6,0,5c1.4,1.4,3.6,1.4,5,0l0,0l3-3v5.7c0,0.6-0.5,1.1-1.1,1.1l0,0H11.1
							c-0.6,0-1.1-0.5-1.1-1.1l0,0V18.4c0-0.6,0.5-1.1,1.1-1.1l0,0H26.2z M32.5,10c1.8,0,3.2,1.4,3.2,3.2c0,1.8-1.4,3.2-3.2,3.2
							c-1.8,0-3.2-1.4-3.2-3.2C29.3,11.4,30.7,10,32.5,10z"/>
					</g>
				</mask>
				<g class="st3">
					<rect id="Rectangle-11" x="10" y="10" class="st4" width="26" height="28"/>
				</g>
			</g>
		</g>
	</g>
</g>
</svg>
