<?xml version="1.0" encoding="utf-8"?>
<!-- Generator: Adobe Illustrator 23.1.0, SVG Export Plug-In . SVG Version: 6.00 Build 0)  -->
<svg version="1.1" id="Layer_1" xmlns="http://www.w3.org/2000/svg" xmlns:xlink="http://www.w3.org/1999/xlink" x="0px" y="0px"
	 viewBox="0 0 49 52" style="enable-background:new 0 0 49 52;" xml:space="preserve">
<style type="text/css">
	.st0{fill-rule:evenodd;clip-rule:evenodd;fill:#278ADA;}
	.st1{filter:url(#Adobe_OpacityMaskFilter);}
	.st2{fill-rule:evenodd;clip-rule:evenodd;fill:#FFFFFF;}
	.st3{mask:url(#mask-2_1_);}
</style>
<title>icons/graph-up</title>
<desc>Created with Sketch.</desc>
<g id="TapGoods-2.0">
	<g transform="translate(-383.000000, -1117.000000)">
		<g transform="translate(383.000000, 1117.000000)">
			<g>
				<g id="Mask">
					<path class="st0" d="M15.8,31.1v10.6h-4.4V31.1H15.8z M23,27.5v14.2h-4.3V27.5H23z M30.3,23.9v17.7H26V23.9H30.3z M37.5,20.4
						v21.3h-4.3V20.4H37.5z M39,10l-3.3,6.7l-1.4-2l-8.8,6l-5.7-2.2l-8.4,5.4L10,21.7l9.5-6.1l5.6,2.2l7.7-5.2l-1.4-2L39,10z"/>
				</g>
				<defs>
					<filter id="Adobe_OpacityMaskFilter" filterUnits="userSpaceOnUse" x="10" y="10" width="29" height="32">
						<feColorMatrix  type="matrix" values="1 0 0 0 0  0 1 0 0 0  0 0 1 0 0  0 0 0 1 0"/>
					</filter>
				</defs>
				<mask maskUnits="userSpaceOnUse" x="10" y="10" width="29" height="32" id="mask-2_1_">
					<g class="st1">
						<path id="path-1_1_" class="st2" d="M15.8,31.1v10.6h-4.4V31.1H15.8z M23,27.5v14.2h-4.3V27.5H23z M30.3,23.9v17.7H26V23.9
							H30.3z M37.5,20.4v21.3h-4.3V20.4H37.5z M39,10l-3.3,6.7l-1.4-2l-8.8,6l-5.7-2.2l-8.4,5.4L10,21.7l9.5-6.1l5.6,2.2l7.7-5.2
							l-1.4-2L39,10z"/>
					</g>
				</mask>
				<g id="Rectangle-11" class="st3">
					<rect x="10" y="10" class="st0" width="29" height="32"/>
				</g>
			</g>
		</g>
	</g>
</g>
</svg>
