<?xml version="1.0" encoding="utf-8"?>
<!-- Generator: Adobe Illustrator 23.1.0, SVG Export Plug-In . SVG Version: 6.00 Build 0)  -->
<svg version="1.1" id="Layer_1" xmlns="http://www.w3.org/2000/svg" xmlns:xlink="http://www.w3.org/1999/xlink" x="0px" y="0px"
	 viewBox="0 0 44 44" style="enable-background:new 0 0 44 44;" xml:space="preserve">
<style type="text/css">
	.st0{fill-rule:evenodd;clip-rule:evenodd;fill:#278ADA;}
</style>
<title>Combined Shape</title>
<desc>Created with Sketch.</desc>
<g id="TapGoods-2.0">
	<g transform="translate(-386.000000, -1254.000000)">
		<path id="Combined-Shape" class="st0" d="M397.6,1280.7c1-0.9,2.4-0.9,3.4,0c3.9,3.7,10,3.7,13.9,0c1-0.9,2.7-0.9,3.4,0
			c1,0.9,1,2.3,0,3.2c-2.7,2.7-6.6,4.1-10.3,4.1s-7.6-1.4-10.5-4.1C396.6,1283,396.6,1281.6,397.6,1280.7z M399.6,1264
			c2,0,3.6,1.6,3.6,3.6s-1.6,3.6-3.6,3.6s-3.6-1.6-3.6-3.6S397.6,1264,399.6,1264z M416.4,1264c2,0,3.6,1.6,3.6,3.6
			s-1.6,3.6-3.6,3.6s-3.6-1.6-3.6-3.6S414.5,1264,416.4,1264z"/>
	</g>
</g>
</svg>
